<svg width="24" height="24" viewBox="0 0 24 24" fill="none" xmlns="http://www.w3.org/2000/svg">
<g clip-path="url(#clip0_1205_12476)">
<path d="M12 2.5C6.75004 2.5 2.45837 6.79167 2.45837 12.0833C2.45837 15.2083 4.00004 18.0417 6.33337 19.75C6.62504 17.9167 7.75004 16.375 9.33337 15.5417C8.29171 14.75 7.62504 13.5 7.62504 12.0833C7.62504 9.66667 9.58337 7.70833 12 7.70833C14.4167 7.70833 16.375 9.66667 16.375 12.0833C16.375 13.5 15.7084 14.75 14.6667 15.5417C16.25 16.375 17.375 17.9167 17.6667 19.75C20.0417 18 21.5417 15.2083 21.5417 12.0833C21.5417 6.79167 17.25 2.5 12 2.5Z" fill="#8A8ED1"/>
<path d="M5.25004 8.20829C5.5417 7.74996 6.12504 7.58329 6.62504 7.83329C7.08337 8.08329 7.25004 8.70829 7.00004 9.20829C6.83337 9.54162 6.50004 9.70829 6.12504 9.70829C5.95837 9.70829 5.7917 9.66662 5.62504 9.58329C5.1667 9.29162 5.00004 8.66662 5.25004 8.20829Z" fill="#8A8ED1"/>
<path d="M4.25 12.0834C4.25 11.5417 4.70833 11.0834 5.25 11.0834C5.79167 11.0834 6.25 11.5417 6.25 12.0834C6.25 12.625 5.79167 13.0834 5.25 13.0834C4.66667 13.0834 4.25 12.625 4.25 12.0834Z" fill="#8A8ED1"/>
<path d="M6.66671 16.3333C6.50005 16.4167 6.33338 16.4583 6.16671 16.4583C5.83338 16.4583 5.50005 16.2917 5.29171 15.9583C5.00005 15.5 5.16671 14.875 5.66671 14.5833C6.12504 14.2917 6.75005 14.4583 7.04171 14.9583C7.29171 15.4583 7.12505 16.0417 6.66671 16.3333Z" fill="#8A8ED1"/>
<path d="M9.08334 7.08334C8.91667 7.16667 8.75 7.20834 8.58334 7.20834C8.25 7.20834 7.91667 7.04167 7.70834 6.70834C7.41667 6.25 7.58334 5.625 8.08334 5.33334C8.54167 5.04167 9.16667 5.20834 9.45834 5.70834C9.70834 6.16667 9.58334 6.79167 9.08334 7.08334Z" fill="#8A8ED1"/>
<path d="M12 6.29163C11.4167 6.29163 10.9584 5.83329 10.9584 5.29163C10.9584 4.74996 11.4167 4.29163 11.9584 4.29163H12C12.5417 4.29163 13 4.74996 13 5.29163C13 5.83329 12.5417 6.29163 12 6.29163Z" fill="#8A8ED1"/>
<path d="M16.25 6.70829C16.0834 7.04162 15.7084 7.20829 15.375 7.20829C15.2084 7.20829 15.0417 7.16662 14.875 7.08329C14.4167 6.79162 14.25 6.20829 14.5 5.70829C14.7917 5.24996 15.375 5.08329 15.875 5.33329C16.375 5.62496 16.5 6.20829 16.25 6.70829Z" fill="#8A8ED1"/>
<path d="M17.375 7.79171C17.8333 7.50005 18.4583 7.66671 18.75 8.16671C19.0416 8.62505 18.875 9.25005 18.375 9.54171C18.2083 9.62505 18.0416 9.66671 17.875 9.66671C17.5416 9.66671 17.2083 9.50005 17 9.16671C16.7083 8.70838 16.875 8.08338 17.375 7.79171Z" fill="#8A8ED1"/>
<path d="M18.75 15.9167C18.5834 16.25 18.25 16.4167 17.875 16.4167C17.7084 16.4167 17.5417 16.375 17.375 16.2917C16.9167 16 16.75 15.4167 17 14.9167C17.2917 14.4583 17.875 14.2917 18.375 14.5417C18.8334 14.8333 19 15.4583 18.75 15.9167Z" fill="#8A8ED1"/>
<path d="M18.75 13.0416C18.2083 13.0416 17.75 12.5833 17.75 12.0416C17.75 11.5 18.2083 11.0416 18.75 11.0416C19.2917 11.0416 19.75 11.5 19.75 12.0416C19.75 12.5833 19.3333 13.0416 18.75 13.0416Z" fill="#8A8ED1"/>
<path d="M12 14.875C13.5418 14.875 14.7917 13.6251 14.7917 12.0833C14.7917 10.5415 13.5418 9.29163 12 9.29163C10.4582 9.29163 9.20837 10.5415 9.20837 12.0833C9.20837 13.6251 10.4582 14.875 12 14.875Z" fill="white"/>
<path d="M12 16.4584C9.70837 16.4584 7.83337 18.3334 7.83337 20.625V20.6667C9.08337 21.2917 10.5 21.625 12 21.625C13.5 21.625 14.875 21.2917 16.125 20.6667V20.625C16.125 18.3334 14.2917 16.4584 12 16.4584Z" fill="white"/>
<path d="M12 23.2084C18.1442 23.2084 23.125 18.2275 23.125 12.0834C23.125 5.93921 18.1442 0.958374 12 0.958374C5.85583 0.958374 0.875 5.93921 0.875 12.0834C0.875 18.2275 5.85583 23.2084 12 23.2084Z" fill="#200D38"/>
<path d="M16.125 20.6667C14.875 21.2917 13.4584 21.625 12 21.625C10.5417 21.625 9.12504 21.2917 7.83337 20.6667V20.625C7.83337 18.3334 9.70837 16.4584 12 16.4584C14.2917 16.4584 16.1667 18.3334 16.1667 20.625C16.125 20.625 16.125 20.6667 16.125 20.6667Z" fill="white"/>
<path d="M12 14.875C13.5418 14.875 14.7917 13.6251 14.7917 12.0833C14.7917 10.5415 13.5418 9.29163 12 9.29163C10.4582 9.29163 9.20837 10.5415 9.20837 12.0833C9.20837 13.6251 10.4582 14.875 12 14.875Z" fill="white"/>
<path d="M17.6667 19.75C17.375 17.9167 16.25 16.375 14.6667 15.5417C15.7084 14.75 16.375 13.5 16.375 12.0833C16.375 9.66667 14.4167 7.70833 12 7.70833C9.58337 7.70833 7.62504 9.66667 7.62504 12.0833C7.62504 13.5 8.29171 14.75 9.33337 15.5417C7.75004 16.375 6.62504 17.9167 6.33337 19.75C4.00004 18 2.45837 15.2083 2.45837 12.0833C2.45837 6.79167 6.75004 2.5 12 2.5C17.25 2.5 21.5417 6.79167 21.5417 12.0417C21.5417 15.2083 20 18 17.6667 19.75Z" fill="#8A8ED1"/>
<path d="M15.875 5.33334C15.4166 5.04167 14.7916 5.20834 14.5 5.70834C14.2083 6.16667 14.375 6.79167 14.875 7.08334C15.0416 7.16667 15.2083 7.20834 15.375 7.20834C15.7083 7.20834 16.0416 7.04167 16.25 6.70834C16.5 6.20834 16.375 5.625 15.875 5.33334Z" fill="white"/>
<path d="M5.25 13.0834C5.79167 13.0834 6.25 12.625 6.25 12.0834C6.25 11.5417 5.79167 11.0834 5.25 11.0834C4.70833 11.0834 4.25 11.5417 4.25 12.0834C4.25 12.625 4.66667 13.0834 5.25 13.0834Z" fill="white"/>
<path d="M17.875 9.66666C18.0417 9.66666 18.2084 9.625 18.375 9.54166C18.8334 9.25 19 8.66666 18.75 8.16666C18.4584 7.70833 17.875 7.54166 17.375 7.79166C16.9167 8.08333 16.75 8.66666 17 9.16666C17.1667 9.5 17.5 9.66666 17.875 9.66666Z" fill="white"/>
<path d="M5.62504 9.54171C5.7917 9.62505 5.95837 9.66671 6.12504 9.66671C6.45837 9.66671 6.7917 9.50005 7.00004 9.16671C7.25004 8.70838 7.12504 8.08338 6.62504 7.79171C6.1667 7.50005 5.5417 7.66671 5.25004 8.16671C5.00004 8.66671 5.1667 9.29171 5.62504 9.54171Z" fill="white"/>
<path d="M18.375 14.5833C17.9166 14.2917 17.2916 14.4583 17 14.9583C16.7083 15.4167 16.875 16.0417 17.375 16.3333C17.5416 16.4167 17.7083 16.4583 17.875 16.4583C18.2083 16.4583 18.5416 16.2917 18.75 15.9583C19 15.4583 18.8333 14.8333 18.375 14.5833Z" fill="white"/>
<path d="M18.75 11.0416C18.2083 11.0416 17.75 11.5 17.75 12.0416C17.75 12.5833 18.2083 13.0416 18.75 13.0416C19.2917 13.0416 19.75 12.5833 19.75 12.0416C19.75 11.5 19.3333 11.0416 18.75 11.0416Z" fill="white"/>
<path d="M12 4.29163H11.9584C11.4167 4.29163 10.9584 4.74996 10.9584 5.29163C10.9584 5.83329 11.4167 6.29163 11.9584 6.29163H12C12.5417 6.29163 13 5.83329 13 5.29163C13 4.74996 12.5417 4.29163 12 4.29163Z" fill="white"/>
<path d="M8.08329 5.33329C7.62496 5.62496 7.45829 6.20829 7.70829 6.70829C7.87496 7.04162 8.20829 7.20829 8.58329 7.20829C8.74995 7.20829 8.91662 7.16662 9.08329 7.08329C9.54162 6.79162 9.70829 6.20829 9.45829 5.70829C9.16662 5.24996 8.58329 5.08329 8.08329 5.33329Z" fill="white"/>
<path d="M5.62504 14.625C5.1667 14.9166 5.00004 15.5 5.25004 16C5.4167 16.3333 5.75004 16.5 6.12504 16.5C6.2917 16.5 6.45837 16.4583 6.62504 16.375C7.08337 16.0833 7.25004 15.5 7.00004 15C6.75004 14.5 6.12504 14.3333 5.62504 14.625Z" fill="white"/>
</g>
<defs>
<clipPath id="clip0_1205_12476">
<rect width="24" height="24" fill="white"/>
</clipPath>
</defs>
</svg>
