<svg width="24" height="24" viewBox="0 0 24 24" fill="none" xmlns="http://www.w3.org/2000/svg">
<circle cx="12" cy="12" r="12" fill="#067065"/>
<path d="M14.9625 12.8625C14.6725 12.8625 14.4375 12.6274 14.4375 12.3375V9.18745H11.2875C10.9975 9.18745 10.7625 8.9524 10.7625 8.66245C10.7625 8.3725 10.9975 8.13745 11.2875 8.13745H14.9625C15.2524 8.13745 15.4875 8.3725 15.4875 8.66245V12.3375C15.4875 12.6274 15.2524 12.8625 14.9625 12.8625Z" fill="white"/>
<path d="M5.77513 14.1751C5.56347 14.1742 5.37305 14.0463 5.29217 13.8507C5.2113 13.6551 5.25578 13.4301 5.40501 13.28L8.29251 10.3925C8.49696 10.1906 8.82567 10.1906 9.03013 10.3925L10.7758 12.1092L14.33 8.55495C14.5383 8.37657 14.8488 8.38856 15.0427 8.58248C15.2366 8.7764 15.2486 9.0869 15.0703 9.2952L11.1485 13.2327C10.9437 13.4363 10.613 13.4363 10.4083 13.2327L8.66263 11.5028L6.14263 14.0202C6.04527 14.1182 5.91323 14.1738 5.77513 14.1751Z" fill="white"/>
<path fill-rule="evenodd" clip-rule="evenodd" d="M5.775 18.375H17.85C18.1399 18.375 18.375 18.1399 18.375 17.85V5.775C18.375 5.48505 18.1399 5.25 17.85 5.25H5.775C5.48505 5.25 5.25 5.48505 5.25 5.775V17.85C5.25 18.1399 5.48505 18.375 5.775 18.375ZM17.325 17.325H6.3V6.3H17.325V17.325Z" fill="white"/>
<path d="M8.66245 18.375C8.3725 18.375 8.13745 18.1399 8.13745 17.85V15.75C8.13745 15.46 8.3725 15.225 8.66245 15.225C8.9524 15.225 9.18745 15.46 9.18745 15.75V17.85C9.18745 18.1399 8.9524 18.375 8.66245 18.375Z" fill="white"/>
<path d="M11.8125 18.375C11.5225 18.375 11.2875 18.1399 11.2875 17.85V15.75C11.2875 15.46 11.5225 15.225 11.8125 15.225C12.1024 15.225 12.3375 15.46 12.3375 15.75V17.85C12.3375 18.1399 12.1024 18.375 11.8125 18.375Z" fill="white"/>
<path d="M14.9625 18.375C14.6726 18.375 14.4375 18.1399 14.4375 17.85V15.75C14.4375 15.46 14.6726 15.225 14.9625 15.225C15.2524 15.225 15.4875 15.46 15.4875 15.75V17.85C15.4875 18.1399 15.2524 18.375 14.9625 18.375Z" fill="white"/>
</svg>
