<svg width="16" height="17" viewBox="0 0 16 17" fill="none" xmlns="http://www.w3.org/2000/svg">
<path fill-rule="evenodd" clip-rule="evenodd" d="M14.3522 13.6987L10.7518 10.107C11.4773 9.08076 11.8534 7.78449 11.6653 6.40721C11.3429 4.08473 9.4621 2.24834 7.12451 2.0323C3.954 1.70823 1.26712 4.40879 1.58954 7.62246C1.80449 9.94494 3.63157 11.8623 5.94229 12.1864C7.31259 12.3754 8.60229 11.9974 9.62331 11.2682L13.1969 14.86C13.3581 15.022 13.5999 15.022 13.7611 14.86L14.3253 14.2928C14.4866 14.1308 14.4866 13.8608 14.3522 13.6987V13.6987ZM3.17472 7.10955C3.17472 5.19215 4.73311 3.62583 6.6408 3.62583C8.54848 3.62583 10.1069 5.19215 10.1069 7.10955C10.1069 9.02695 8.54848 10.5933 6.6408 10.5933C4.73311 10.5933 3.17472 9.05395 3.17472 7.10955V7.10955Z" fill="#747474"/>
</svg>
