<svg width="16" height="17" viewBox="0 0 16 17" fill="none" xmlns="http://www.w3.org/2000/svg">
<path d="M3.1543 2.30762C3.42329 2.30783 3.63854 2.49615 3.69238 2.73828L3.93457 3.89648H14.4619C14.7579 3.89669 15 4.13854 15 4.43457V4.56934L13.8965 9.68457C13.8426 9.9538 13.6267 10.1152 13.3574 10.1152H5.17285L5.44238 11.4619H13.9502C14.2463 11.462 14.4883 11.7039 14.4883 12C14.4882 12.2961 14.2462 12.538 13.9502 12.5381H13.5996C13.6535 12.6996 13.6807 12.8887 13.6807 13.0771C13.6805 13.9655 12.9538 14.6924 12.0654 14.6924C11.1771 14.6924 10.4504 13.9655 10.4502 13.0771C10.4502 12.8887 10.4774 12.6996 10.5312 12.5381H6.57324C6.62709 12.6996 6.6543 12.8887 6.6543 13.0771C6.65413 13.9655 5.92645 14.6924 5.03809 14.6924C4.1499 14.6922 3.42302 13.9653 3.42285 13.0771C3.42285 12.4041 3.82719 11.838 4.39258 11.5957L2.72266 3.38477H1.53809C1.2421 3.38456 1 3.14173 1 2.8457C1.0002 2.54985 1.24223 2.30782 1.53809 2.30762H3.1543ZM4.15039 5L4.95801 9.03809H12.9268L13.7881 5H4.15039Z" fill="#747474"/>
<path d="M5.03846 13.6153C5.33585 13.6153 5.57692 13.3742 5.57692 13.0769C5.57692 12.7795 5.33585 12.5384 5.03846 12.5384C4.74108 12.5384 4.5 12.7795 4.5 13.0769C4.5 13.3742 4.74108 13.6153 5.03846 13.6153Z" fill="white"/>
<path d="M12.0385 13.6153C12.3358 13.6153 12.5769 13.3742 12.5769 13.0769C12.5769 12.7795 12.3358 12.5384 12.0385 12.5384C11.7411 12.5384 11.5 12.7795 11.5 13.0769C11.5 13.3742 11.7411 13.6153 12.0385 13.6153Z" fill="white"/>
</svg>
