<svg width="16" height="17" viewBox="0 0 16 17" fill="none" xmlns="http://www.w3.org/2000/svg">
<path d="M8.00011 2.03845C4.43011 2.03845 1.53857 4.93268 1.53857 8.49999C1.53857 12.0673 4.43281 14.9615 8.00011 14.9615C11.5674 14.9615 14.4617 12.0673 14.4617 8.49999C14.4617 4.93268 11.5674 2.03845 8.00011 2.03845ZM9.69627 4.32691C9.85781 4.04961 10.2078 3.94999 10.477 4.11153H10.4932C10.7624 4.27307 10.8567 4.62307 10.6978 4.8923C10.5363 5.16153 10.1863 5.26922 9.90896 5.10768H9.90088C9.63165 4.94614 9.52396 4.59614 9.6855 4.32691H9.69627ZM8.01357 3.44922C8.32857 3.44922 8.57896 3.71038 8.57896 4.02538C8.57896 4.34038 8.3205 4.60153 8.00281 4.60153H7.98665C7.66357 4.60153 7.4105 4.34576 7.4105 4.02807C7.4105 3.71038 7.66627 3.45191 7.98396 3.44922H8.01357ZM9.03665 6.41076C10.0247 6.98422 10.3667 8.2523 9.7905 9.23768C9.41357 9.91076 8.71357 10.2877 7.98665 10.2877C7.63665 10.2877 7.28665 10.1961 6.9555 10.005C5.95934 9.43153 5.61742 8.16345 6.19088 7.17807C6.76434 6.18191 8.03511 5.84268 9.03127 6.41345L9.03665 6.41076ZM5.45588 4.14922H5.47204C5.60413 4.07246 5.76131 4.05132 5.909 4.09045C6.05668 4.12958 6.18278 4.22578 6.25954 4.35788C6.3363 4.48997 6.35744 4.64715 6.31831 4.79484C6.27918 4.94252 6.18298 5.06862 6.05088 5.14538H6.0428C5.77357 5.30691 5.4155 5.21807 5.25396 4.94345C5.21505 4.87827 5.1894 4.80605 5.17849 4.73092C5.16759 4.6558 5.17163 4.57927 5.19039 4.50571C5.20916 4.43216 5.24227 4.36304 5.28783 4.30232C5.33339 4.2416 5.3905 4.19049 5.45588 4.15191V4.14922ZM3.63857 5.99614V5.97999C3.71607 5.84934 3.84189 5.75446 3.98882 5.7159C4.13574 5.67733 4.29194 5.69817 4.42361 5.77392C4.55528 5.84967 4.65182 5.97422 4.69234 6.12062C4.73286 6.26701 4.7141 6.42348 4.64011 6.55614V6.56422C4.47857 6.84691 4.12857 6.94114 3.85934 6.78768C3.59011 6.63422 3.48242 6.27614 3.64396 6.00691L3.63857 5.99614ZM2.99242 8.49999V8.47307C2.99242 8.15807 3.24819 7.90768 3.56588 7.89961C3.88896 7.89961 4.14473 8.15538 4.14742 8.47307V8.48653C4.14742 8.80961 3.89434 9.06807 3.58204 9.07076C3.25896 9.07076 3.00319 8.81768 2.9978 8.50538L2.99242 8.49999ZM4.47319 11.1923C4.20396 11.3538 3.84588 11.2623 3.68165 10.9904V10.9742C3.60923 10.842 3.59146 10.6867 3.63214 10.5416C3.67282 10.3964 3.76872 10.273 3.89929 10.1976C4.02987 10.1223 4.18475 10.1011 4.33076 10.1386C4.47677 10.176 4.60231 10.2692 4.6805 10.3981V10.4061C4.84204 10.6861 4.7505 11.0388 4.47588 11.2004L4.47319 11.1923ZM8.05396 14.0381C6.26088 14.0381 5.08165 13.2035 5.08165 13.2035C5.4855 11.6042 6.48165 10.8073 7.98934 10.8073C9.49704 10.8073 10.6817 11.6285 10.9509 13.1765C10.9509 13.1765 9.69896 14.0381 8.05127 14.0381H8.05396ZM11.519 5.72691C11.7882 5.56538 12.1463 5.65961 12.3078 5.93422V5.95038C12.4613 6.21961 12.3617 6.56961 12.0924 6.73114C11.9592 6.80695 11.8014 6.82684 11.6535 6.78647C11.5056 6.7461 11.3798 6.64875 11.3036 6.51576V6.50768C11.142 6.22768 11.2363 5.87499 11.5109 5.71614L11.519 5.72691ZM12.3267 10.9231V10.9392C12.1651 11.2085 11.8151 11.3054 11.5459 11.1465C11.2686 10.985 11.169 10.635 11.3305 10.3658V10.3577C11.492 10.0777 11.842 9.98076 12.1113 10.1423C12.2425 10.2181 12.3386 10.3425 12.3789 10.4886C12.4192 10.6346 12.4004 10.7907 12.3267 10.9231ZM12.4074 9.0223C12.0843 9.0223 11.8286 8.76384 11.8286 8.44614V8.43268C11.8275 8.27916 11.8875 8.13151 11.9953 8.02219C12.1031 7.91288 12.2499 7.85087 12.4034 7.8498C12.5569 7.84873 12.7046 7.90869 12.8139 8.01648C12.9232 8.12428 12.9852 8.27109 12.9863 8.42461V8.45153C12.9863 8.76653 12.7278 9.01691 12.4101 9.01691L12.4074 9.0223Z" fill="#747474"/>
</svg>
