<svg width="16" height="17" viewBox="0 0 16 17" fill="none" xmlns="http://www.w3.org/2000/svg">
<path fill-rule="evenodd" clip-rule="evenodd" d="M14.2502 12.8884L11.7714 10.4096C13.378 7.83893 12.5976 4.44201 10.027 2.83536C7.45636 1.22871 4.05945 2.00909 2.4528 4.57973C0.846146 7.15037 1.62652 10.5473 4.19716 12.1539C5.89562 13.2097 8.00721 13.3015 9.75157 12.3376L12.2763 14.8623C12.4599 15.0459 12.7813 15.0459 12.9649 14.8623L14.2043 13.577C14.4338 13.3934 14.4338 13.072 14.2502 12.8884ZM2.58968 7.47219C2.58968 4.99336 4.60947 2.97357 7.0883 2.97357C9.56713 2.97357 11.5869 4.99336 11.5869 7.47219C11.5869 8.6657 11.1279 9.81331 10.2557 10.6396C10.0721 9.6756 9.47532 8.84932 8.64905 8.39028C9.70484 7.5181 9.88846 5.95735 9.01628 4.85565C8.1441 3.79985 6.58335 3.61623 5.48165 4.48841C4.42585 5.36059 4.24223 6.92134 5.11442 8.02304C5.20622 8.16076 5.34394 8.29847 5.48165 8.39028C4.65537 8.84932 4.05862 9.6756 3.875 10.6396C3.09463 9.81331 2.58968 8.6657 2.58968 7.47219ZM7.13315 4.94816C6.30687 4.94816 5.61831 5.63672 5.61831 6.463C5.61831 7.28927 6.30687 7.97784 7.17905 7.97784C8.00533 7.97784 8.64799 7.28927 8.64799 6.463C8.64799 5.63672 7.95942 4.94816 7.13315 4.94816ZM4.83966 11.3737C4.83966 11.3508 4.85114 11.3278 4.86261 11.3049C4.87409 11.2819 4.88556 11.259 4.88556 11.236C4.88556 9.99661 5.89546 8.98672 7.13487 8.98672C8.37429 8.98672 9.38418 9.99661 9.38418 11.236C9.38418 11.2819 9.38418 11.3278 9.43009 11.3737C8.00706 12.2 6.21679 12.2 4.83966 11.3737ZM10.5774 11.7412L12.6431 13.8069L13.148 13.2102L11.1283 11.1904C11.0059 11.3434 10.8834 11.4556 10.761 11.5678C10.6998 11.6239 10.6386 11.68 10.5774 11.7412Z" fill="#747474"/>
<path d="M11.7714 10.4096L11.6654 10.3433L11.6127 10.4276L11.683 10.498L11.7714 10.4096ZM14.2502 12.8884L14.1618 12.9768L14.1618 12.9768L14.2502 12.8884ZM10.027 2.83536L10.0933 2.72936L10.0933 2.72936L10.027 2.83536ZM2.4528 4.57973L2.3468 4.51348L2.4528 4.57973ZM4.19716 12.1539L4.13091 12.2599L4.13117 12.2601L4.19716 12.1539ZM9.75157 12.3376L9.83996 12.2492L9.77345 12.1826L9.69111 12.2281L9.75157 12.3376ZM12.9649 14.8623L13.0533 14.9507L13.0549 14.9491L12.9649 14.8623ZM14.2043 13.577L14.1262 13.4794L14.1199 13.4844L14.1143 13.4902L14.2043 13.577ZM10.2557 10.6396L10.1329 10.663L10.1757 10.8876L10.3417 10.7303L10.2557 10.6396ZM8.64905 8.39028L8.56944 8.29391L8.4282 8.41058L8.58834 8.49955L8.64905 8.39028ZM9.01628 4.85565L9.11431 4.77804L9.11265 4.77604L9.01628 4.85565ZM5.48165 4.48841L5.40405 4.39039L5.40204 4.39204L5.48165 4.48841ZM5.11442 8.02304L5.21877 7.95347L5.21242 7.94545L5.11442 8.02304ZM5.48165 8.39028L5.54236 8.49955L5.72156 8.39999L5.55099 8.28627L5.48165 8.39028ZM3.875 10.6396L3.78412 10.7254L3.95204 10.9032L3.99779 10.663L3.875 10.6396ZM4.83966 11.3737H4.71466V11.4445L4.77535 11.4809L4.83966 11.3737ZM9.43009 11.3737L9.49285 11.4818L9.63337 11.4002L9.51848 11.2854L9.43009 11.3737ZM12.6431 13.8069L12.5547 13.8953L12.6508 13.9914L12.7385 13.8877L12.6431 13.8069ZM10.5774 11.7412L10.489 11.6528L10.4006 11.7412L10.489 11.8296L10.5774 11.7412ZM13.148 13.2102L13.2435 13.2909L13.3178 13.2031L13.2364 13.1218L13.148 13.2102ZM11.1283 11.1904L11.2167 11.102L11.1179 11.0032L11.0307 11.1123L11.1283 11.1904ZM10.761 11.5678L10.8455 11.66L10.8455 11.66L10.761 11.5678ZM11.7714 10.4096L11.683 10.498L14.1618 12.9768L14.2502 12.8884L14.3386 12.8L11.8598 10.3212L11.7714 10.4096ZM10.027 2.83536L9.96075 2.94136C12.4727 4.51135 13.2355 7.8311 11.6654 10.3433L11.7714 10.4096L11.8774 10.4758C13.5205 7.84676 12.7226 4.37268 10.0933 2.72936L10.027 2.83536ZM2.4528 4.57973L2.5588 4.64598C4.12878 2.134 7.44853 1.37123 9.96075 2.94136L10.027 2.83536L10.0933 2.72936C7.46419 1.0862 3.99011 1.88417 2.3468 4.51348L2.4528 4.57973ZM4.19716 12.1539L4.26341 12.0479C1.75143 10.478 0.988659 7.1582 2.5588 4.64598L2.4528 4.57973L2.3468 4.51348C0.703634 7.14254 1.5016 10.6166 4.13091 12.2599L4.19716 12.1539ZM9.75157 12.3376L9.69111 12.2281C7.9881 13.1693 5.92485 13.0807 4.26315 12.0478L4.19716 12.1539L4.13117 12.2601C5.86638 13.3387 8.02633 13.4338 9.81204 12.447L9.75157 12.3376ZM12.2763 14.8623L12.3647 14.7739L9.83996 12.2492L9.75157 12.3376L9.66319 12.4259L12.1879 14.9507L12.2763 14.8623ZM12.9649 14.8623L12.8765 14.7739C12.7417 14.9087 12.4995 14.9087 12.3647 14.7739L12.2763 14.8623L12.1879 14.9507C12.4204 15.1831 12.8208 15.1831 13.0533 14.9507L12.9649 14.8623ZM14.2043 13.577L14.1143 13.4902L12.8749 14.7755L12.9649 14.8623L13.0549 14.9491L14.2943 13.6637L14.2043 13.577ZM14.2502 12.8884L14.1618 12.9768C14.2945 13.1095 14.2956 13.3438 14.1262 13.4794L14.2043 13.577L14.2824 13.6746C14.572 13.4429 14.5731 13.0346 14.3386 12.8L14.2502 12.8884ZM7.0883 2.97357V2.84857C4.54043 2.84857 2.46468 4.92432 2.46468 7.47219H2.58968H2.71468C2.71468 5.0624 4.6785 3.09857 7.0883 3.09857V2.97357ZM11.5869 7.47219H11.7119C11.7119 4.92432 9.63617 2.84857 7.0883 2.84857V2.97357V3.09857C9.49809 3.09857 11.4619 5.0624 11.4619 7.47219H11.5869ZM10.2557 10.6396L10.3417 10.7303C11.2404 9.87886 11.7119 8.69764 11.7119 7.47219H11.5869H11.4619C11.4619 8.63376 11.0153 9.74776 10.1697 10.5488L10.2557 10.6396ZM8.64905 8.39028L8.58834 8.49955C9.38152 8.9402 9.95607 9.73462 10.1329 10.663L10.2557 10.6396L10.3785 10.6162C10.1881 9.61657 9.56912 8.75844 8.70975 8.28101L8.64905 8.39028ZM9.01628 4.85565L8.91827 4.93324C9.7479 5.98118 9.57321 7.4647 8.56944 8.29391L8.64905 8.39028L8.72866 8.48665C9.83648 7.57149 10.029 5.93352 9.11429 4.77806L9.01628 4.85565ZM5.48165 4.48841L5.55924 4.58642C6.60718 3.7568 8.0907 3.93148 8.91991 4.93526L9.01628 4.85565L9.11265 4.77604C8.19749 3.66822 6.55952 3.47567 5.40406 4.39041L5.48165 4.48841ZM5.11442 8.02304L5.21242 7.94545C4.3828 6.89751 4.55748 5.41399 5.56126 4.58478L5.48165 4.48841L5.40204 4.39204C4.29422 5.3072 4.10167 6.94517 5.01641 8.10063L5.11442 8.02304ZM5.48165 8.39028L5.55099 8.28627C5.42701 8.20362 5.30108 8.07769 5.21842 7.9537L5.11442 8.02304L5.01041 8.09238C5.11137 8.24382 5.26087 8.39332 5.41231 8.49428L5.48165 8.39028ZM3.875 10.6396L3.99779 10.663C4.17462 9.73462 4.74917 8.9402 5.54236 8.49955L5.48165 8.39028L5.42094 8.28101C4.56157 8.75844 3.94261 9.61657 3.75221 10.6162L3.875 10.6396ZM2.58968 7.47219H2.46468C2.46468 8.70023 2.9837 9.87791 3.78412 10.7254L3.875 10.6396L3.96588 10.5538C3.20555 9.74871 2.71468 8.63117 2.71468 7.47219H2.58968ZM5.61831 6.463H5.74331C5.74331 5.70576 6.37591 5.07316 7.13315 5.07316V4.94816V4.82316C6.23783 4.82316 5.49331 5.56768 5.49331 6.463H5.61831ZM7.17905 7.97784V7.85284C6.37346 7.85284 5.74331 7.21782 5.74331 6.463H5.61831H5.49331C5.49331 7.36073 6.24028 8.10284 7.17905 8.10284V7.97784ZM8.64799 6.463H8.52299C8.52299 7.2253 7.93133 7.85284 7.17905 7.85284V7.97784V8.10284C8.07932 8.10284 8.77299 7.35324 8.77299 6.463H8.64799ZM7.13315 4.94816V5.07316C7.89039 5.07316 8.52299 5.70576 8.52299 6.463H8.64799H8.77299C8.77299 5.56768 8.02846 4.82316 7.13315 4.82316V4.94816ZM4.86261 11.3049L4.75081 11.249C4.74296 11.2647 4.71466 11.3155 4.71466 11.3737H4.83966H4.96466C4.96466 11.3827 4.96248 11.3869 4.96387 11.3832C4.96447 11.3816 4.96552 11.3791 4.96737 11.3752C4.96927 11.3711 4.97142 11.3668 4.97442 11.3608L4.86261 11.3049ZM4.88556 11.236H4.76056C4.76056 11.227 4.76274 11.2229 4.76135 11.2266C4.76075 11.2282 4.7597 11.2307 4.75786 11.2346C4.75595 11.2387 4.7538 11.243 4.75081 11.249L4.86261 11.3049L4.97442 11.3608C4.98226 11.3451 5.01056 11.2942 5.01056 11.236H4.88556ZM7.13487 8.98672V8.86172C5.82642 8.86172 4.76056 9.92758 4.76056 11.236H4.88556H5.01056C5.01056 10.0656 5.96449 9.11172 7.13487 9.11172V8.98672ZM9.38418 11.236H9.50918C9.50918 9.92758 8.44333 8.86172 7.13487 8.86172V8.98672V9.11172C8.30525 9.11172 9.25918 10.0656 9.25918 11.236H9.38418ZM9.43009 11.3737L9.51848 11.2854C9.51451 11.2814 9.513 11.2789 9.5125 11.278C9.51202 11.2772 9.51161 11.2763 9.51119 11.2746C9.51069 11.2726 9.51006 11.2691 9.50966 11.2627C9.50922 11.2557 9.50918 11.2482 9.50918 11.236H9.38418H9.25918C9.25918 11.2838 9.25693 11.3774 9.3417 11.4621L9.43009 11.3737ZM4.83966 11.3737L4.77535 11.4809C6.19269 12.3313 8.03166 12.3303 9.49285 11.4818L9.43009 11.3737L9.36732 11.2656C7.98245 12.0698 6.24088 12.0687 4.90397 11.2666L4.83966 11.3737ZM12.6431 13.8069L12.7315 13.7185L10.6658 11.6528L10.5774 11.7412L10.489 11.8296L12.5547 13.8953L12.6431 13.8069ZM13.148 13.2102L13.0526 13.1294L12.5477 13.7262L12.6431 13.8069L12.7385 13.8877L13.2435 13.2909L13.148 13.2102ZM11.1283 11.1904L11.0399 11.2788L13.0597 13.2986L13.148 13.2102L13.2364 13.1218L11.2167 11.102L11.1283 11.1904ZM10.761 11.5678L10.8455 11.66C10.9676 11.548 11.0967 11.4299 11.2259 11.2685L11.1283 11.1904L11.0307 11.1123C10.915 11.2569 10.7993 11.3632 10.6766 11.4757L10.761 11.5678ZM10.5774 11.7412L10.6658 11.8296C10.7248 11.7706 10.784 11.7163 10.8455 11.66L10.761 11.5678L10.6766 11.4757C10.6156 11.5315 10.5525 11.5894 10.489 11.6528L10.5774 11.7412Z" fill="#747474"/>
</svg>
