<svg width="24" height="24" viewBox="0 0 24 24" fill="none" xmlns="http://www.w3.org/2000/svg">
<circle cx="12" cy="12" r="12" fill="#DD7A01"/>
<path fill-rule="evenodd" clip-rule="evenodd" d="M18.2151 16.5003L15.9008 14.1861C17.4008 11.7861 16.6722 8.61463 14.2722 7.11463C11.8722 5.61463 8.70081 6.3432 7.20081 8.7432C5.70081 11.1432 6.42938 14.3146 8.82938 15.8146C10.4151 16.8003 12.3865 16.8861 14.0151 15.9861L16.3722 18.3432C16.5437 18.5146 16.8437 18.5146 17.0151 18.3432L18.1722 17.1432C18.3865 16.9718 18.3865 16.6718 18.2151 16.5003ZM7.32883 11.4437C7.32883 9.12937 9.21454 7.24365 11.5288 7.24365C13.8431 7.24365 15.7288 9.12937 15.7288 11.4437C15.7288 12.5579 15.3003 13.6294 14.486 14.4008C14.3145 13.5008 13.7574 12.7294 12.986 12.3008C13.9717 11.4865 14.1431 10.0294 13.3288 9.0008C12.5145 8.01508 11.0574 7.84365 10.0288 8.65794C9.04311 9.47222 8.87168 10.9294 9.68597 11.9579C9.77168 12.0865 9.90026 12.2151 10.0288 12.3008C9.2574 12.7294 8.70026 13.5008 8.52883 14.4008C7.80026 13.6294 7.32883 12.5579 7.32883 11.4437ZM11.5703 9.08716C10.7989 9.08716 10.156 9.73002 10.156 10.5014C10.156 11.2729 10.7989 11.9157 11.6132 11.9157C12.3846 11.9157 12.9846 11.2729 12.9846 10.5014C12.9846 9.73002 12.3417 9.08716 11.5703 9.08716ZM9.42918 15.0862C9.42918 15.0648 9.4399 15.0434 9.45061 15.022C9.46133 15.0005 9.47204 14.9791 9.47204 14.9577C9.47204 13.8005 10.4149 12.8577 11.572 12.8577C12.7292 12.8577 13.672 13.8005 13.672 14.9577C13.672 15.0005 13.672 15.0434 13.7149 15.0862C12.3863 15.8577 10.7149 15.8577 9.42918 15.0862ZM14.7863 15.4293L16.7149 17.3579L17.1863 16.8008L15.3006 14.915C15.1863 15.0579 15.072 15.1627 14.9577 15.2674C14.9006 15.3198 14.8434 15.3722 14.7863 15.4293Z" fill="white"/>
</svg>
