<svg width="16" height="17" viewBox="0 0 16 17" fill="none" xmlns="http://www.w3.org/2000/svg">
<path fill-rule="evenodd" clip-rule="evenodd" d="M11.7314 6.15654C11.9028 6.15654 12.0742 6.24226 12.16 6.41369C12.2457 6.54226 12.2457 6.75654 12.1171 6.88511L5.55996 14.8565C5.43139 15.028 5.25996 15.0708 5.08853 15.028C4.83139 14.9851 4.70281 14.728 4.74567 14.4708L6.03139 8.94226H4.27424H4.14567C3.88853 8.8994 3.7171 8.64226 3.80281 8.38511L5.43139 2.2994C5.47424 2.08511 5.68853 1.95654 5.90281 1.95654H11.0457C11.1314 1.95654 11.2171 1.95654 11.26 1.9994C11.4742 2.08511 11.56 2.38511 11.4742 2.5994L9.88853 6.15654H11.7314ZM7.01726 8.55669L6.0744 12.7138L10.703 7.05669H9.11726C9.03154 7.05669 8.94583 7.05669 8.90297 7.01383C8.68868 6.92812 8.60297 6.62812 8.68868 6.41383L10.2744 2.85669H6.20297L4.83154 7.99955H6.54583H6.6744C6.93154 8.0424 7.06011 8.29955 7.01726 8.55669Z" fill="#5C5C5C"/>
<path d="M7.40407 3.54244C7.14693 3.45672 6.88978 3.62815 6.84693 3.8853V3.8853L6.16121 6.45672C6.0755 6.71387 6.24693 6.97101 6.50407 7.01387V7.01387C6.54693 7.01387 6.58978 7.01387 6.63264 7.01387C6.84693 7.01387 7.01835 6.88529 7.06121 6.67101L7.74693 4.09958C7.83264 3.8853 7.66121 3.62815 7.40407 3.54244Z" fill="#5C5C5C"/>
</svg>
