<svg width="24" height="24" viewBox="0 0 24 24" fill="none" xmlns="http://www.w3.org/2000/svg">
<circle cx="12" cy="12" r="12" fill="#200D38"/>
<path fill-rule="evenodd" clip-rule="evenodd" d="M15.7285 9.68596C15.8999 9.68596 16.0713 9.77168 16.157 9.9431C16.2427 10.0717 16.2427 10.286 16.1142 10.4145L9.55703 18.386C9.42846 18.5574 9.25703 18.6002 9.0856 18.5574C8.82846 18.5145 8.69988 18.2574 8.74274 18.0002L10.0285 12.4717H8.27131H8.14274C7.8856 12.4288 7.71417 12.1717 7.79988 11.9145L9.42846 5.82882C9.47131 5.61453 9.6856 5.48596 9.89988 5.48596H15.0427C15.1285 5.48596 15.2142 5.48596 15.257 5.52882C15.4713 5.61453 15.557 5.91453 15.4713 6.12882L13.8856 9.68596H15.7285ZM11.0143 12.0861L10.0715 16.2433L14.7 10.5861H13.1143C13.0286 10.5861 12.9429 10.5861 12.9 10.5433C12.6858 10.4575 12.6 10.1575 12.6858 9.94325L14.2715 6.38611H10.2L8.82861 11.529H10.5429H10.6715C10.9286 11.5718 11.0572 11.829 11.0143 12.0861Z" fill="white"/>
<path d="M11.4011 7.07186C11.144 6.98614 10.8869 7.15757 10.844 7.41471V7.41471L10.1583 9.98614C10.0726 10.2433 10.244 10.5004 10.5011 10.5433V10.5433C10.544 10.5433 10.5869 10.5433 10.6297 10.5433C10.844 10.5433 11.0154 10.4147 11.0583 10.2004L11.744 7.629C11.8297 7.41471 11.6583 7.15757 11.4011 7.07186Z" fill="white"/>
</svg>
