<svg width="16" height="17" viewBox="0 0 16 17" fill="none" xmlns="http://www.w3.org/2000/svg">
<path d="M11.15 9.55001C10.86 9.55001 10.625 9.31496 10.625 9.02501V5.87501H7.47495C7.185 5.87501 6.94995 5.63996 6.94995 5.35001C6.94995 5.06006 7.185 4.82501 7.47495 4.82501H11.15C11.4399 4.82501 11.675 5.06006 11.675 5.35001V9.02501C11.675 9.31496 11.4399 9.55001 11.15 9.55001Z" fill="#5C5C5C"/>
<path d="M1.96251 10.8626C1.75085 10.8617 1.56043 10.7338 1.47955 10.5382C1.39867 10.3426 1.44316 10.1176 1.59238 9.96745L4.47988 7.07995C4.68434 6.87813 5.01305 6.87813 5.21751 7.07995L6.96313 8.7967L10.5174 5.24245C10.7257 5.06407 11.0362 5.07606 11.2301 5.26998C11.424 5.4639 11.436 5.7744 11.2576 5.9827L7.33588 9.9202C7.13111 10.1238 6.8004 10.1238 6.59563 9.9202L4.85001 8.19033L2.33001 10.7077C2.23265 10.8057 2.10061 10.8613 1.96251 10.8626Z" fill="#5C5C5C"/>
<path fill-rule="evenodd" clip-rule="evenodd" d="M1.9625 15.0625H14.0375C14.3274 15.0625 14.5625 14.8274 14.5625 14.5375V2.4625C14.5625 2.17255 14.3274 1.9375 14.0375 1.9375H1.9625C1.67255 1.9375 1.4375 2.17255 1.4375 2.4625V14.5375C1.4375 14.8274 1.67255 15.0625 1.9625 15.0625ZM13.5125 14.0125H2.4875V2.9875H13.5125V14.0125Z" fill="#5C5C5C"/>
<path d="M4.84995 15.0625C4.56 15.0625 4.32495 14.8275 4.32495 14.5375V12.4375C4.32495 12.1476 4.56 11.9125 4.84995 11.9125C5.1399 11.9125 5.37495 12.1476 5.37495 12.4375V14.5375C5.37495 14.8275 5.1399 15.0625 4.84995 15.0625Z" fill="#5C5C5C"/>
<path d="M8.0001 15.0625C7.71015 15.0625 7.4751 14.8275 7.4751 14.5375V12.4375C7.4751 12.1476 7.71015 11.9125 8.0001 11.9125C8.29005 11.9125 8.5251 12.1476 8.5251 12.4375V14.5375C8.5251 14.8275 8.29005 15.0625 8.0001 15.0625Z" fill="#5C5C5C"/>
<path d="M11.15 15.0625C10.8601 15.0625 10.625 14.8275 10.625 14.5375V12.4375C10.625 12.1476 10.8601 11.9125 11.15 11.9125C11.4399 11.9125 11.675 12.1476 11.675 12.4375V14.5375C11.675 14.8275 11.4399 15.0625 11.15 15.0625Z" fill="#5C5C5C"/>
</svg>
