<svg width="24" height="24" viewBox="0 0 24 24" fill="none" xmlns="http://www.w3.org/2000/svg">
<circle cx="12" cy="12" r="12" fill="#8A033E"/>
<path fill-rule="evenodd" clip-rule="evenodd" d="M11.6569 18.1716C11.7426 18.2573 11.8712 18.3001 11.9998 18.3001C12.1283 18.3001 12.2141 18.2573 12.2998 18.1716L17.5283 12.9001C18.8141 11.6144 18.8141 9.47156 17.5283 8.18584C16.2426 6.90013 14.0998 6.90013 12.8141 8.18584L11.9569 9.04299L11.0998 8.18584C9.81406 6.94299 7.79978 6.94299 6.51406 8.18584C5.18549 9.4287 5.09978 11.5716 6.38549 12.9001L11.6569 18.1716ZM6.38558 10.543C6.38558 9.21446 7.45701 8.14303 8.78558 8.14303C9.38558 8.14303 10.0284 8.40017 10.4999 8.8716L11.6999 10.0716C11.8713 10.243 12.1713 10.243 12.3427 10.0716L13.5427 8.8716C14.4427 7.9716 15.8999 7.9716 16.8427 8.8716C17.7856 9.7716 17.8284 11.3145 16.9284 12.2573L11.9999 17.1859L7.0713 12.2573C6.64273 11.7859 6.38558 11.1859 6.38558 10.543Z" fill="white"/>
<path d="M7.75732 11.1856C7.50017 11.1856 7.28589 10.9713 7.28589 10.7141C7.28589 9.81414 8.01446 9.08557 8.91446 9.08557C9.1716 9.08557 9.38589 9.29986 9.38589 9.557C9.38589 9.81414 9.1716 10.0284 8.91446 10.0284C8.52875 10.0284 8.22875 10.3284 8.22875 10.7141C8.22875 10.9713 8.01446 11.1856 7.75732 11.1856Z" fill="white"/>
</svg>
