<svg width="16" height="17" viewBox="0 0 16 17" fill="none" xmlns="http://www.w3.org/2000/svg">
<path fill-rule="evenodd" clip-rule="evenodd" d="M7.67669 13.9107C7.76241 13.9964 7.89098 14.0393 8.01955 14.0393C8.14812 14.0393 8.23384 13.9964 8.31955 13.9107L13.5481 8.63929C14.8338 7.35358 14.8338 5.21072 13.5481 3.92501C12.2624 2.6393 10.1196 2.6393 8.83384 3.92501L7.97669 4.78215L7.11955 3.92501C5.83384 2.68215 3.81955 2.68215 2.53384 3.92501C1.20527 5.16787 1.11955 7.31072 2.40527 8.63929L7.67669 13.9107ZM2.40536 6.2822C2.40536 4.95363 3.47679 3.8822 4.80536 3.8822C5.40536 3.8822 6.04822 4.13934 6.51965 4.61077L7.71965 5.81077C7.89107 5.9822 8.19107 5.9822 8.3625 5.81077L9.5625 4.61077C10.4625 3.71077 11.9196 3.71077 12.8625 4.61077C13.8054 5.51077 13.8482 7.05363 12.9482 7.99648L8.01965 12.9251L3.09107 7.99648C2.6625 7.52505 2.40536 6.92505 2.40536 6.2822Z" fill="#747474"/>
<path d="M8.31955 13.9107L8.40794 13.9991L8.4083 13.9987L8.31955 13.9107ZM13.5481 8.63929L13.4597 8.55091L13.4594 8.55127L13.5481 8.63929ZM13.5481 3.92501L13.4597 4.0134L13.5481 3.92501ZM8.83384 3.92501L8.74545 3.83662L8.74545 3.83662L8.83384 3.92501ZM7.97669 4.78215L7.88831 4.87054L7.97669 4.95893L8.06508 4.87054L7.97669 4.78215ZM7.11955 3.92501L7.20795 3.83661L7.20643 3.83514L7.11955 3.92501ZM2.53384 3.92501L2.61924 4.01631L2.62071 4.01488L2.53384 3.92501ZM2.40527 8.63929L2.31543 8.72623L2.31688 8.72768L2.40527 8.63929ZM6.51965 4.61077L6.60803 4.52238L6.60803 4.52238L6.51965 4.61077ZM7.71965 5.81077L7.80803 5.72238L7.80803 5.72238L7.71965 5.81077ZM8.3625 5.81077L8.45089 5.89916L8.45089 5.89916L8.3625 5.81077ZM9.5625 4.61077L9.65089 4.69916L9.65089 4.69916L9.5625 4.61077ZM12.8625 4.61077L12.9488 4.52035L12.9488 4.52035L12.8625 4.61077ZM12.9482 7.99648L13.0366 8.08489L13.0386 8.08279L12.9482 7.99648ZM8.01965 12.9251L7.93126 13.0134L8.01965 13.1018L8.10803 13.0134L8.01965 12.9251ZM3.09107 7.99648L2.99848 8.08066L3.00269 8.08487L3.09107 7.99648ZM8.01955 14.0393V13.9143C7.91579 13.9143 7.82205 13.8793 7.76508 13.8223L7.67669 13.9107L7.58831 13.9991C7.70277 14.1136 7.86617 14.1643 8.01955 14.1643V14.0393ZM8.31955 13.9107L8.23116 13.8223C8.19569 13.8578 8.16517 13.8794 8.13486 13.8929C8.10508 13.9062 8.06925 13.9143 8.01955 13.9143V14.0393V14.1643C8.09842 14.1643 8.16974 14.151 8.23639 14.1214C8.3025 14.092 8.3577 14.0493 8.40794 13.9991L8.31955 13.9107ZM13.5481 8.63929L13.4594 8.55127L8.2308 13.8227L8.31955 13.9107L8.4083 13.9987L13.6369 8.72732L13.5481 8.63929ZM13.5481 3.92501L13.4597 4.0134C14.6966 5.2503 14.6966 7.31401 13.4597 8.55091L13.5481 8.63929L13.6365 8.72768C14.971 7.39315 14.971 5.17115 13.6365 3.83662L13.5481 3.92501ZM8.83384 3.92501L8.92222 4.0134C10.1591 2.7765 12.2228 2.7765 13.4597 4.0134L13.5481 3.92501L13.6365 3.83662C12.302 2.50209 10.08 2.50209 8.74545 3.83662L8.83384 3.92501ZM7.97669 4.78215L8.06508 4.87054L8.92222 4.0134L8.83384 3.92501L8.74545 3.83662L7.88831 4.69376L7.97669 4.78215ZM7.11955 3.92501L7.03116 4.0134L7.88831 4.87054L7.97669 4.78215L8.06508 4.69376L7.20794 3.83662L7.11955 3.92501ZM2.53384 3.92501L2.62071 4.01488C3.85798 2.81886 5.79541 2.81886 7.03267 4.01488L7.11955 3.92501L7.20643 3.83514C5.87226 2.54544 3.78112 2.54544 2.44696 3.83514L2.53384 3.92501ZM2.40527 8.63929L2.49509 8.55237C1.25901 7.27509 1.34057 5.21246 2.61923 4.01629L2.53384 3.92501L2.44844 3.83373C1.06996 5.12327 0.98009 7.34636 2.31544 8.72622L2.40527 8.63929ZM7.67669 13.9107L7.76508 13.8223L2.49365 8.55091L2.40527 8.63929L2.31688 8.72768L7.58831 13.9991L7.67669 13.9107ZM4.80536 3.8822V3.7572C3.40775 3.7572 2.28036 4.88459 2.28036 6.2822H2.40536H2.53036C2.53036 5.02266 3.54582 4.0072 4.80536 4.0072V3.8822ZM6.51965 4.61077L6.60803 4.52238C6.1136 4.02794 5.43912 3.7572 4.80536 3.7572V3.8822V4.0072C5.3716 4.0072 5.98284 4.25074 6.43126 4.69916L6.51965 4.61077ZM7.71965 5.81077L7.80803 5.72238L6.60803 4.52238L6.51965 4.61077L6.43126 4.69916L7.63126 5.89916L7.71965 5.81077ZM8.3625 5.81077L8.27411 5.72238C8.1515 5.84499 7.93065 5.84499 7.80803 5.72238L7.71965 5.81077L7.63126 5.89916C7.8515 6.1194 8.23065 6.1194 8.45089 5.89916L8.3625 5.81077ZM9.5625 4.61077L9.47411 4.52238L8.27411 5.72238L8.3625 5.81077L8.45089 5.89916L9.65089 4.69916L9.5625 4.61077ZM12.8625 4.61077L12.9488 4.52035C11.9588 3.57534 10.424 3.57246 9.47411 4.52238L9.5625 4.61077L9.65089 4.69916C10.501 3.84908 11.8805 3.84619 12.7762 4.70119L12.8625 4.61077ZM12.9482 7.99648L13.0386 8.08279C13.9868 7.08952 13.9411 5.46755 12.9488 4.52035L12.8625 4.61077L12.7762 4.70119C13.6696 5.55398 13.7097 7.01773 12.8578 7.91017L12.9482 7.99648ZM8.01965 12.9251L8.10803 13.0134L13.0366 8.08487L12.9482 7.99648L12.8598 7.90809L7.93126 12.8367L8.01965 12.9251ZM3.09107 7.99648L3.00269 8.08487L7.93126 13.0134L8.01965 12.9251L8.10803 12.8367L3.17946 7.90809L3.09107 7.99648ZM2.40536 6.2822H2.28036C2.28036 6.95929 2.5513 7.58856 2.99858 8.08057L3.09107 7.99648L3.18357 7.9124C2.7737 7.46155 2.53036 6.89082 2.53036 6.2822H2.40536Z" fill="#747474"/>
<path d="M3.77709 6.92474C3.51995 6.92474 3.30566 6.71045 3.30566 6.45331C3.30566 5.55331 4.03424 4.82474 4.93424 4.82474C5.19138 4.82474 5.40566 5.03902 5.40566 5.29617C5.40566 5.55331 5.19138 5.76759 4.93424 5.76759C4.54852 5.76759 4.24852 6.0676 4.24852 6.45331C4.24852 6.71045 4.03424 6.92474 3.77709 6.92474Z" fill="#747474"/>
</svg>
