<svg width="16" height="17" viewBox="0 0 16 17" fill="none" xmlns="http://www.w3.org/2000/svg">
<path d="M4.25781 10.1961C4.25781 10.5532 4.11598 10.8956 3.86353 11.148C3.61107 11.4005 3.26867 11.5423 2.91165 11.5423C2.55463 11.5423 2.21223 11.4005 1.95978 11.148C1.70732 10.8956 1.5655 10.5532 1.5655 10.1961C1.5655 9.83912 1.70732 9.49672 1.95978 9.24427C2.21223 8.99182 2.55463 8.84999 2.91165 8.84999H4.25781V10.1961Z" fill="#747474"/>
<path d="M4.93088 10.1961C4.93088 9.83912 5.07271 9.49672 5.32516 9.24427C5.57761 8.99182 5.92001 8.84999 6.27704 8.84999C6.63233 8.85554 6.97151 8.99915 7.22277 9.25041C7.47403 9.50167 7.61764 9.84085 7.62319 10.1961V13.6154C7.62319 13.7922 7.58837 13.9672 7.52072 14.1305C7.45307 14.2938 7.35391 14.4422 7.22891 14.5672C7.10391 14.6923 6.95551 14.7914 6.79219 14.8591C6.62886 14.9267 6.45382 14.9615 6.27704 14.9615C5.92174 14.956 5.58256 14.8124 5.3313 14.5611C5.08004 14.3098 4.93643 13.9707 4.93088 13.6154V10.1961Z" fill="#747474"/>
<path d="M6.30396 4.75768C5.94694 4.75768 5.60454 4.61586 5.35208 4.3634C5.09963 4.11095 4.9578 3.76855 4.9578 3.41153C4.9578 3.05451 5.09963 2.71211 5.35208 2.45965C5.60454 2.2072 5.94694 2.06538 6.30396 2.06538C6.66098 2.06538 7.00338 2.2072 7.25583 2.45965C7.50829 2.71211 7.65011 3.05451 7.65011 3.41153V4.75768H6.30396Z" fill="#747474"/>
<path d="M6.30396 5.43076C6.48074 5.43076 6.65579 5.46558 6.81911 5.53323C6.98243 5.60088 7.13083 5.70004 7.25583 5.82504C7.38084 5.95004 7.47999 6.09844 7.54764 6.26176C7.61529 6.42509 7.65011 6.60013 7.65011 6.77691C7.64456 7.1322 7.50095 7.47139 7.24969 7.72265C6.99843 7.97391 6.65925 8.11751 6.30396 8.12307H2.88473C2.52771 8.12307 2.18531 7.98124 1.93285 7.72879C1.6804 7.47634 1.53857 7.13394 1.53857 6.77691C1.54413 6.42162 1.68774 6.08244 1.93899 5.83118C2.19025 5.57992 2.52944 5.43631 2.88473 5.43076H6.30396Z" fill="#747474"/>
<path d="M11.7424 6.80384C11.7424 6.53759 11.8214 6.27733 11.9693 6.05595C12.1172 5.83458 12.3274 5.66204 12.5734 5.56015C12.8194 5.45827 13.0901 5.43161 13.3512 5.48355C13.6123 5.53549 13.8522 5.6637 14.0404 5.85196C14.2287 6.04023 14.3569 6.28009 14.4089 6.54122C14.4608 6.80234 14.4341 7.07301 14.3323 7.31899C14.2304 7.56496 14.0578 7.77521 13.8365 7.92312C13.6151 8.07104 13.3548 8.14999 13.0886 8.14999H11.7424V6.80384Z" fill="#747474"/>
<path d="M11.0693 6.80384C11.0693 7.16086 10.9275 7.50326 10.6751 7.75571C10.4226 8.00816 10.0802 8.14999 9.72319 8.14999C9.36617 8.14999 9.02377 8.00816 8.77131 7.75571C8.51886 7.50326 8.37704 7.16086 8.37704 6.80384V3.38461C8.37704 3.02758 8.51886 2.68518 8.77131 2.43273C9.02377 2.18028 9.36617 2.03845 9.72319 2.03845C10.0785 2.044 10.4177 2.18761 10.6689 2.43887C10.9202 2.69013 11.0638 3.02932 11.0693 3.38461V6.80384Z" fill="#747474"/>
<path d="M9.69627 12.2423C9.96251 12.2423 10.2228 12.3212 10.4441 12.4692C10.6655 12.6171 10.8381 12.8273 10.9399 13.0733C11.0418 13.3193 11.0685 13.5899 11.0166 13.8511C10.9646 14.1122 10.8364 14.3521 10.6481 14.5403C10.4599 14.7286 10.22 14.8568 9.95889 14.9087C9.69776 14.9607 9.42709 14.934 9.18112 14.8321C8.93514 14.7302 8.7249 14.5577 8.57698 14.3363C8.42906 14.115 8.35011 13.8547 8.35011 13.5885V12.2423H9.69627Z" fill="#747474"/>
<path d="M9.69627 11.5692C9.33924 11.5692 8.99684 11.4274 8.74439 11.1749C8.49194 10.9225 8.35011 10.5801 8.35011 10.2231C8.35566 9.86778 8.49927 9.52859 8.75053 9.27733C9.00179 9.02607 9.34097 8.88247 9.69627 8.87691H13.1155C13.4725 8.87691 13.8149 9.01874 14.0674 9.27119C14.3198 9.52365 14.4616 9.86605 14.4616 10.2231C14.4561 10.5784 14.3125 10.9175 14.0612 11.1688C13.81 11.4201 13.4708 11.5637 13.1155 11.5692H9.69627Z" fill="#747474"/>
</svg>
