<svg width="24" height="24" viewBox="0 0 24 24" fill="none" xmlns="http://www.w3.org/2000/svg">
<rect width="24" height="24" rx="12" fill="#D6E6FF"/>
<path d="M17.3295 6.39082C16.247 5.59542 14.7243 5.83137 13.9289 6.9138L10.4165 11.7033L9.97622 11.173C9.11514 10.1416 7.58271 10.0006 6.55136 10.8616C5.52001 11.7227 5.37893 13.2551 6.24001 14.2865L8.67244 17.2054C9.1346 17.76 9.82055 18.0811 10.5405 18.0811C10.5649 18.0811 10.5916 18.0811 10.616 18.0811C11.3627 18.0568 12.0584 17.6919 12.5011 17.0887L17.8524 9.79137C18.6478 8.70893 18.4119 7.18623 17.3295 6.39082Z" fill="#032D60"/>
<path d="M16.7554 7.17403C16.106 6.69727 15.1914 6.83836 14.7146 7.48781L10.4676 13.2794L9.22947 11.7932C8.7138 11.1754 7.79434 11.0902 7.17407 11.6059C6.5538 12.1216 6.4711 13.0411 6.98677 13.6613L9.4192 16.5802C9.6965 16.9135 10.1076 17.1057 10.5406 17.1057C10.5552 17.1057 10.5697 17.1057 10.5868 17.1057C11.0343 17.0911 11.4527 16.8721 11.7179 16.5097L17.0692 9.21241C17.546 8.56295 17.4049 7.64836 16.7554 7.1716V7.17403Z" fill="#0D9DDA"/>
<path d="M8.48267 12.4184C8.30996 12.2117 8.00348 12.1849 7.79672 12.3552C7.58996 12.5279 7.56321 12.8344 7.73348 13.0411L8.34159 13.7709C8.43888 13.8852 8.5751 13.946 8.71618 13.946C8.82564 13.946 8.93753 13.9095 9.02753 13.8341C9.23429 13.6614 9.26105 13.3549 9.09078 13.1482L8.48267 12.4184Z" fill="white"/>
</svg>
